PWHSGothic-Regular.ufo
<glyph name="comma" format="2">
  <advance width="240"/>
  <unicode hex="002C"/>
  <outline>
    <contour>
      <point x="68" y="124" type="line"/>
      <point x="68" y="0" type="line"/>
      <point x="120" y="0" type="line"/>
      <point x="120" y="-16" type="line" smooth="yes"/>
      <point x="120" y="-69"/>
      <point x="94" y="-98"/>
      <point x="50" y="-98" type="curve"/>
      <point x="50" y="-146" type="line"/>
      <point x="147" y="-146"/>
      <point x="173" y="-72.0"/>
      <point x="173" y="-16" type="curve" smooth="yes"/>
      <point x="173" y="124" type="line"/>
    </contour>
  </outline>
</glyph>
<glyph name="period" format="2">
  <advance width="240"/>
  <unicode hex="002E"/>
  <outline>
    <contour>
      <point x="68" y="124" type="line"/>
      <point x="68" y="0" type="line"/>
      <point x="173" y="0" type="line"/>
      <point x="173" y="124" type="line"/>
    </contour>
  </outline>
</glyph>
<glyph name="A" format="2">
  <advance width="680"/>
  <unicode hex="0041"/>
  <outline>
    <contour>
      <point x="514" y="301" type="line"/>
      <point x="172" y="301" type="line"/>
      <point x="172" y="218" type="line"/>
      <point x="514" y="218" type="line"/>
    </contour>
    <contour>
      <point x="124" y="0" type="line"/>
      <point x="363" y="640" type="line"/>
      <point x="322" y="640" type="line"/>
      <point x="557" y="0" type="line"/>
      <point x="655" y="0" type="line"/>
      <point x="392" y="700" type="line"/>
      <point x="292" y="700" type="line"/>
      <point x="25" y="0" type="line"/>
    </contour>
  </outline>
</glyph>
<glyph name="B" format="2">
  <advance width="675"/>
  <unicode hex="0042"/>
  <outline>
    <contour>
      <point x="85" y="700" type="line"/>
      <point x="85" y="0" type="line"/>
      <point x="180" y="0" type="line"/>
      <point x="180" y="700" type="line"/>
    </contour>
    <contour>
      <point x="426" y="0" type="line" smooth="yes"/>
      <point x="561.0" y="0.0"/>
      <point x="645" y="89"/>
      <point x="645" y="201" type="curve" smooth="yes"/>
      <point x="645" y="296"/>
      <point x="585" y="350"/>
      <point x="524" y="374" type="curve"/>
      <point x="524" y="356" type="line"/>
      <point x="580" y="374"/>
      <point x="630" y="428"/>
      <point x="630" y="511" type="curve" smooth="yes"/>
      <point x="630" y="621"/>
      <point x="550.0" y="700.0"/>
      <point x="426" y="700" type="curve" smooth="yes"/>
      <point x="124" y="700" type="line"/>
      <point x="124" y="614" type="line"/>
      <point x="419" y="614" type="line" smooth="yes"/>
      <point x="492.0" y="614.0"/>
      <point x="538" y="574"/>
      <point x="538" y="508" type="curve" smooth="yes"/>
      <point x="538" y="442"/>
      <point x="496.0" y="402.0"/>
      <point x="423" y="402" type="curve" smooth="yes"/>
      <point x="123" y="402" type="line"/>
      <point x="123" y="316" type="line"/>
      <point x="420" y="316" type="line" smooth="yes"/>
      <point x="491.0" y="316.0"/>
      <point x="548" y="279"/>
      <point x="548" y="202" type="curve" smooth="yes"/>
      <point x="548" y="127"/>
      <point x="495.0" y="86.0"/>
      <point x="420" y="86" type="curve" smooth="yes"/>
      <point x="124" y="86" type="line"/>
      <point x="124" y="0" type="line"/>
    </contour>
  </outline>
</glyph>
<glyph name="E" format="2">
  <advance width="670"/>
  <unicode hex="0045"/>
  <outline>
    <contour>
      <point x="85" y="700" type="line"/>
      <point x="85" y="0" type="line"/>
      <point x="180" y="0" type="line"/>
      <point x="180" y="700" type="line"/>
    </contour>
    <contour>
      <point x="124" y="614" type="line"/>
      <point x="620" y="614" type="line"/>
      <point x="620" y="700" type="line"/>
      <point x="124" y="700" type="line"/>
    </contour>
    <contour>
      <point x="134" y="312" type="line"/>
      <point x="482" y="312" type="line"/>
      <point x="482" y="397" type="line"/>
      <point x="134" y="397" type="line"/>
    </contour>
    <contour>
      <point x="128" y="0" type="line"/>
      <point x="638" y="0" type="line"/>
      <point x="638" y="86" type="line"/>
      <point x="128" y="86" type="line"/>
    </contour>
  </outline>
</glyph>
<glyph name="H" format="2">
  <advance width="720"/>
  <unicode hex="0048"/>
  <outline>
    <contour>
      <point x="136" y="319" type="line"/>
      <point x="585" y="319" type="line"/>
      <point x="585" y="405" type="line"/>
      <point x="136" y="405" type="line"/>
    </contour>
    <contour>
      <point x="540" y="700" type="line"/>
      <point x="540" y="0" type="line"/>
      <point x="635" y="0" type="line"/>
      <point x="635" y="700" type="line"/>
    </contour>
    <contour>
      <point x="85" y="700" type="line"/>
      <point x="85" y="0" type="line"/>
      <point x="180" y="0" type="line"/>
      <point x="180" y="700" type="line"/>
    </contour>
  </outline>
</glyph>
<glyph name="O" format="2">
  <advance width="770"/>
  <unicode hex="004F"/>
  <outline>
    <contour>
      <point x="385" y="712" type="curve" smooth="yes"/>
      <point x="195" y="712"/>
      <point x="43" y="564"/>
      <point x="43" y="350" type="curve" smooth="yes"/>
      <point x="43" y="136"/>
      <point x="195" y="-12"/>
      <point x="385" y="-12" type="curve" smooth="yes"/>
      <point x="575" y="-12"/>
      <point x="727" y="136"/>
      <point x="727" y="350" type="curve" smooth="yes"/>
      <point x="727" y="564"/>
      <point x="575" y="712"/>
    </contour>
    <contour>
      <point x="385" y="73" type="curve" smooth="yes"/>
      <point x="243" y="73"/>
      <point x="140" y="185"/>
      <point x="140" y="350" type="curve" smooth="yes"/>
      <point x="140" y="515"/>
      <point x="243" y="627"/>
      <point x="385" y="627" type="curve" smooth="yes"/>
      <point x="527" y="627"/>
      <point x="630" y="515"/>
      <point x="630" y="350" type="curve" smooth="yes"/>
      <point x="630" y="185"/>
      <point x="527" y="73"/>
    </contour>
  </outline>
</glyph>
<glyph name="S" format="2">
  <advance width="638"/>
  <unicode hex="0053"/>
  <outline>
    <contour>
      <point x="37" y="223" type="curve"/>
      <point x="145" y="216" type="line"/>
      <point x="156" y="124"/>
      <point x="222" y="71"/>
      <point x="331" y="71" type="curve" smooth="yes"/>
      <point x="434" y="71"/>
      <point x="501" y="117"/>
      <point x="501" y="196" type="curve" smooth="yes"/>
      <point x="501" y="254"/>
      <point x="462" y="289"/>
      <point x="374" y="301" type="curve" smooth="yes"/>
      <point x="268" y="316" type="line" smooth="yes"/>
      <point x="131" y="335"/>
      <point x="56" y="395"/>
      <point x="56" y="502" type="curve" smooth="yes"/>
      <point x="56" y="627.0"/>
      <point x="168" y="712"/>
      <point x="316" y="712" type="curve" smooth="yes"/>
      <point x="469" y="712"/>
      <point x="575" y="613"/>
      <point x="584" y="496" type="curve"/>
      <point x="482" y="502" type="line"/>
      <point x="476" y="576"/>
      <point x="414" y="629"/>
      <point x="315" y="629" type="curve" smooth="yes"/>
      <point x="218" y="629"/>
      <point x="152" y="580"/>
      <point x="152" y="506" type="curve" smooth="yes"/>
      <point x="152" y="451"/>
      <point x="190" y="421"/>
      <point x="293" y="406" type="curve" smooth="yes"/>
      <point x="399" y="391" type="line" smooth="yes"/>
      <point x="530" y="372"/>
      <point x="598" y="305"/>
      <point x="598" y="206" type="curve" smooth="yes"/>
      <point x="598" y="78"/>
      <point x="494" y="-12"/>
      <point x="332" y="-12" type="curve" smooth="yes"/>
      <point x="159" y="-12"/>
      <point x="45" y="84"/>
    </contour>
  </outline>
</glyph>
<glyph name="U" format="2">
  <advance width="720"/>
  <unicode hex="0055"/>
  <outline>
    <contour>
      <point x="640" y="700" type="line"/>
      <point x="546" y="700" type="line"/>
      <point x="546" y="264" type="line" smooth="yes"/>
      <point x="546.0" y="151.0"/>
      <point x="479" y="76"/>
      <point x="361" y="76" type="curve" smooth="yes"/>
      <point x="243" y="76"/>
      <point x="175.0" y="151.0"/>
      <point x="175" y="264" type="curve" smooth="yes"/>
      <point x="175" y="700" type="line"/>
      <point x="80" y="700" type="line"/>
      <point x="80" y="256" type="line" smooth="yes"/>
      <point x="80" y="96.0"/>
      <point x="193" y="-12"/>
      <point x="361" y="-12" type="curve" smooth="yes"/>
      <point x="529" y="-12"/>
      <point x="640.0" y="96.0"/>
      <point x="640" y="256" type="curve" smooth="yes"/>
    </contour>
  </outline>
</glyph>
<glyph name="a" format="2">
  <advance width="542"/>
  <unicode hex="0061"/>
  <outline>
    <contour>
      <point x="387" y="247" type="line"/>
      <point x="242" y="234" type="line" smooth="yes"/>
      <point x="173" y="228"/>
      <point x="139" y="197"/>
      <point x="139" y="142" type="curve" smooth="yes"/>
      <point x="139.0" y="90.0"/>
      <point x="170" y="57"/>
      <point x="229" y="57" type="curve" smooth="yes"/>
      <point x="306.0" y="57.0"/>
      <point x="368.0" y="114.0"/>
      <point x="368" y="179" type="curve" smooth="yes"/>
      <point x="368" y="344" type="line"/>
      <point x="368.0" y="401.0"/>
      <point x="330" y="442"/>
      <point x="266" y="442" type="curve" smooth="yes"/>
      <point x="193.0" y="442.0"/>
      <point x="159" y="394"/>
      <point x="155" y="344" type="curve"/>
      <point x="61" y="355" type="line"/>
      <point x="64" y="434"/>
      <point x="142" y="512"/>
      <point x="268" y="512" type="curve" smooth="yes"/>
      <point x="384.0" y="512.0"/>
      <point x="458.0" y="444.0"/>
      <point x="458" y="349" type="curve"/>
      <point x="458" y="101" type="line" smooth="yes"/>
      <point x="458" y="79"/>
      <point x="473" y="66"/>
      <point x="496" y="66" type="curve" smooth="yes"/>
      <point x="506" y="66"/>
      <point x="523" y="68"/>
      <point x="539" y="73" type="curve"/>
      <point x="539" y="13" type="line"/>
      <point x="524" y="5"/>
      <point x="497" y="-8"/>
      <point x="462" y="-8" type="curve" smooth="yes"/>
      <point x="427" y="-8"/>
      <point x="372" y="5"/>
      <point x="370" y="95" type="curve"/>
      <point x="387" y="95" type="line"/>
      <point x="347" y="41"/>
      <point x="298" y="-12"/>
      <point x="208" y="-12" type="curve" smooth="yes"/>
      <point x="117" y="-12"/>
      <point x="47" y="47"/>
      <point x="47" y="141" type="curve" smooth="yes"/>
      <point x="47" y="237.0"/>
      <point x="124" y="287"/>
      <point x="233" y="297" type="curve" smooth="yes"/>
      <point x="390" y="311" type="line"/>
    </contour>
  </outline>
</glyph>
<glyph name="c" format="2">
  <advance width="523"/>
  <unicode hex="0063"/>
  <outline>
    <contour>
      <point x="492" y="353" type="line"/>
      <point x="466" y="454"/>
      <point x="387" y="512"/>
      <point x="276" y="512" type="curve" smooth="yes"/>
      <point x="141" y="512"/>
      <point x="35" y="411"/>
      <point x="35" y="250" type="curve" smooth="yes"/>
      <point x="35" y="89"/>
      <point x="141" y="-12"/>
      <point x="276" y="-12" type="curve" smooth="yes"/>
      <point x="387" y="-12"/>
      <point x="466" y="44"/>
      <point x="492" y="145" type="curve"/>
      <point x="413" y="167" type="line"/>
      <point x="396" y="97"/>
      <point x="350" y="59"/>
      <point x="276" y="59" type="curve" smooth="yes"/>
      <point x="184" y="59"/>
      <point x="126" y="133"/>
      <point x="126" y="250" type="curve" smooth="yes"/>
      <point x="126" y="367"/>
      <point x="184" y="441"/>
      <point x="276" y="441" type="curve" smooth="yes"/>
      <point x="350" y="441"/>
      <point x="397" y="401"/>
      <point x="413" y="331" type="curve"/>
    </contour>
  </outline>
</glyph>
<glyph name="f" format="2">
  <advance width="333"/>
  <unicode hex="0066"/>
  <outline>
    <contour>
      <point x="17" y="431" type="line"/>
      <point x="290" y="431" type="line"/>
      <point x="290" y="500" type="line"/>
      <point x="17" y="500" type="line"/>
    </contour>
    <contour>
      <point x="242" y="711" type="curve" smooth="yes"/>
      <point x="138.0" y="711.0"/>
      <point x="99.0" y="644.0"/>
      <point x="99" y="574" type="curve" smooth="yes"/>
      <point x="99" y="0" type="line"/>
      <point x="189" y="0" type="line"/>
      <point x="189" y="571" type="line" smooth="yes"/>
      <point x="189.0" y="608.0"/>
      <point x="207" y="640"/>
      <point x="256" y="640" type="curve" smooth="yes"/>
      <point x="280.0" y="640.0"/>
      <point x="309" y="634"/>
      <point x="326" y="628" type="curve"/>
      <point x="326" y="695" type="line"/>
      <point x="308" y="703"/>
      <point x="274" y="711"/>
    </contour>
  </outline>
</glyph>
<glyph name="h" format="2">
  <advance width="547"/>
  <unicode hex="0068"/>
  <outline>
    <contour>
      <point x="70" y="700" type="line"/>
      <point x="70" y="0" type="line"/>
      <point x="160" y="0" type="line"/>
      <point x="160" y="315" type="line" smooth="yes"/>
      <point x="160" y="391.0"/>
      <point x="211" y="440"/>
      <point x="282" y="440" type="curve" smooth="yes"/>
      <point x="352" y="440"/>
      <point x="389.0" y="391.0"/>
      <point x="389" y="324" type="curve" smooth="yes"/>
      <point x="389" y="0" type="line"/>
      <point x="479" y="0" type="line"/>
      <point x="479" y="340" type="line" smooth="yes"/>
      <point x="479" y="436"/>
      <point x="413" y="511"/>
      <point x="319" y="511" type="curve" smooth="yes"/>
      <point x="248" y="511"/>
      <point x="189" y="468"/>
      <point x="146" y="402" type="curve"/>
      <point x="160" y="402" type="line"/>
      <point x="160" y="700" type="line"/>
    </contour>
  </outline>
</glyph>
<glyph name="i" format="2">
  <advance width="230"/>
  <unicode hex="0069"/>
  <outline>
    <contour>
      <point x="70" y="500" type="line"/>
      <point x="70" y="0" type="line"/>
      <point x="160" y="0" type="line"/>
      <point x="160" y="500" type="line"/>
    </contour>
    <contour>
      <point x="66" y="700" type="line"/>
      <point x="66" y="595" type="line"/>
      <point x="164" y="595" type="line"/>
      <point x="164" y="700" type="line"/>
    </contour>
    <contour>
      <point x="70" y="436" type="line"/>
      <point x="119" y="436" type="line"/>
      <point x="119" y="500" type="line"/>
      <point x="70" y="500" type="line"/>
    </contour>
    <contour>
      <point x="70" y="0" type="line"/>
      <point x="160" y="0" type="line"/>
      <point x="160" y="63" type="line"/>
      <point x="70" y="63" type="line"/>
    </contour>
  </outline>
</glyph>
<glyph name="m" format="2">
  <advance width="826"/>
  <unicode hex="006D"/>
  <outline>
    <contour>
      <point x="423" y="315" type="line"/>
      <point x="459" y="315" type="line"/>
      <point x="459" y="391"/>
      <point x="507" y="440"/>
      <point x="571" y="440" type="curve" smooth="yes"/>
      <point x="634" y="440"/>
      <point x="668.0" y="391.0"/>
      <point x="668" y="324" type="curve" smooth="yes"/>
      <point x="668" y="0" type="line"/>
      <point x="758" y="0" type="line"/>
      <point x="758" y="340" type="line" smooth="yes"/>
      <point x="758" y="436"/>
      <point x="695" y="511"/>
      <point x="608" y="511" type="curve" smooth="yes"/>
      <point x="541" y="511"/>
      <point x="481" y="471"/>
      <point x="441" y="402" type="curve"/>
      <point x="423" y="402" type="line"/>
    </contour>
    <contour>
      <point x="70" y="500" type="line"/>
      <point x="70" y="0" type="line"/>
      <point x="160" y="0" type="line"/>
      <point x="160" y="315" type="line" smooth="yes"/>
      <point x="160" y="391.0"/>
      <point x="208" y="440"/>
      <point x="272" y="440" type="curve" smooth="yes"/>
      <point x="335" y="440"/>
      <point x="369.0" y="391.0"/>
      <point x="369" y="324" type="curve" smooth="yes"/>
      <point x="369" y="0" type="line"/>
      <point x="459" y="0" type="line"/>
      <point x="459" y="340" type="line" smooth="yes"/>
      <point x="459" y="436"/>
      <point x="396" y="511"/>
      <point x="309" y="511" type="curve" smooth="yes"/>
      <point x="244" y="511"/>
      <point x="187" y="470"/>
      <point x="146" y="402" type="curve"/>
      <point x="160" y="402" type="line"/>
      <point x="160" y="500" type="line"/>
    </contour>
  </outline>
</glyph>
<glyph name="s" format="2">
  <advance width="495"/>
  <unicode hex="0073"/>
  <outline>
    <contour>
      <point x="36" y="162" type="curve"/>
      <point x="131" y="153" type="line"/>
      <point x="136" y="94"/>
      <point x="174" y="55"/>
      <point x="260" y="55" type="curve" smooth="yes"/>
      <point x="330" y="55"/>
      <point x="372" y="86"/>
      <point x="372" y="136" type="curve" smooth="yes"/>
      <point x="372.0" y="171.0"/>
      <point x="350" y="199"/>
      <point x="281" y="209" type="curve" smooth="yes"/>
      <point x="200" y="221" type="line" smooth="yes"/>
      <point x="86" y="238"/>
      <point x="51" y="289"/>
      <point x="51" y="356" type="curve" smooth="yes"/>
      <point x="51" y="456.0"/>
      <point x="134" y="512"/>
      <point x="248" y="512" type="curve" smooth="yes"/>
      <point x="366" y="512"/>
      <point x="448" y="439"/>
      <point x="450" y="354" type="curve"/>
      <point x="363" y="360" type="line"/>
      <point x="359" y="408"/>
      <point x="319" y="445"/>
      <point x="247" y="445" type="curve" smooth="yes"/>
      <point x="177.0" y="445.0"/>
      <point x="136" y="409"/>
      <point x="136" y="366" type="curve" smooth="yes"/>
      <point x="136" y="321"/>
      <point x="165" y="308"/>
      <point x="237" y="296" type="curve" smooth="yes"/>
      <point x="318" y="283" type="line" smooth="yes"/>
      <point x="422" y="266"/>
      <point x="459" y="215"/>
      <point x="459" y="149" type="curve" smooth="yes"/>
      <point x="459" y="49"/>
      <point x="386" y="-12"/>
      <point x="259" y="-12" type="curve" smooth="yes"/>
      <point x="127" y="-12"/>
      <point x="42" y="60"/>
    </contour>
  </outline>
</glyph>
<glyph name="t" format="2">
  <advance width="328"/>
  <unicode hex="0074"/>
  <outline>
    <contour>
      <point x="16" y="431" type="line"/>
      <point x="293" y="431" type="line"/>
      <point x="293" y="500" type="line"/>
      <point x="16" y="500" type="line"/>
    </contour>
    <contour>
      <point x="227" y="-12" type="curve" smooth="yes"/>
      <point x="255.0" y="-12.0"/>
      <point x="286" y="-7"/>
      <point x="299" y="-4" type="curve"/>
      <point x="299" y="62" type="line"/>
      <point x="284" y="60"/>
      <point x="271" y="59"/>
      <point x="260" y="59" type="curve" smooth="yes"/>
      <point x="205" y="59"/>
      <point x="188" y="71"/>
      <point x="188" y="114" type="curve" smooth="yes"/>
      <point x="188" y="647" type="line"/>
      <point x="99" y="647" type="line"/>
      <point x="99" y="93" type="line" smooth="yes"/>
      <point x="99" y="25"/>
      <point x="140" y="-12"/>
    </contour>
  </outline>
</glyph>
<glyph name="w" format="2">
  <advance width="737"/>
  <unicode hex="0077"/>
  <outline>
    <contour>
      <point x="173" y="0" type="line"/>
      <point x="251" y="0" type="line"/>
      <point x="378" y="412" type="line"/>
      <point x="356" y="412" type="line"/>
      <point x="488" y="0" type="line"/>
      <point x="566" y="0" type="line"/>
      <point x="727" y="500" type="line"/>
      <point x="640" y="500" type="line"/>
      <point x="504" y="51" type="line"/>
      <point x="552" y="51" type="line"/>
      <point x="410" y="500" type="line"/>
      <point x="325" y="500" type="line"/>
      <point x="195" y="57" type="line"/>
      <point x="238" y="57" type="line"/>
      <point x="102" y="500" type="line"/>
      <point x="10" y="500" type="line"/>
    </contour>
  </outline>
</glyph>
<glyph name="y" format="2">
  <advance width="525"/>
  <unicode hex="0079"/>
  <outline>
    <contour>
      <point x="239" y="-160" type="line"/>
      <point x="515" y="500" type="line"/>
      <point x="419" y="500" type="line"/>
      <point x="243" y="58" type="line"/>
      <point x="228" y="29" type="line"/>
      <point x="144" y="-160" type="line"/>
    </contour>
    <contour>
      <point x="11" y="500" type="line"/>
      <point x="248" y="-61" type="line"/>
      <point x="293" y="48" type="line"/>
      <point x="108" y="500" type="line"/>
    </contour>
  </outline>
</glyph>
<glyph name="z" format="2">
  <advance width="480"/>
  <unicode hex="007A"/>
  <outline>
    <contour>
      <point x="39" y="63" type="line"/>
      <point x="39" y="0" type="line"/>
      <point x="443" y="0" type="line"/>
      <point x="443" y="74" type="line"/>
      <point x="92" y="74" type="line"/>
      <point x="115" y="35" type="line"/>
      <point x="440" y="445" type="line"/>
      <point x="440" y="500" type="line"/>
      <point x="38" y="500" type="line"/>
      <point x="38" y="426" type="line"/>
      <point x="392" y="426" type="line"/>
      <point x="368" y="479" type="line"/>
    </contour>
  </outline>
</glyph>
<glyph name="emdash" format="2">
  <advance width="940"/>
  <unicode hex="2014"/>
  <outline>
    <contour>
      <point x="56" y="260" type="line"/>
      <point x="884" y="260" type="line"/>
      <point x="884" y="332" type="line"/>
      <point x="56" y="332" type="line"/>
    </contour>
  </outline>
</glyph>
<glyph name="R.alt1" format="2">
  <advance width="670"/>
  <outline>
    <contour>
      <point x="85" y="700" type="line"/>
      <point x="85" y="0" type="line"/>
      <point x="180" y="0" type="line"/>
      <point x="180" y="700" type="line"/>
    </contour>
    <contour>
      <point x="399" y="376" type="curve" smooth="yes"/>
      <point x="132" y="376" type="line"/>
      <point x="132" y="293" type="line"/>
      <point x="399" y="293" type="line" smooth="yes"/>
      <point x="538.0" y="293.0"/>
      <point x="622" y="377"/>
      <point x="622" y="496" type="curve" smooth="yes"/>
      <point x="622" y="614"/>
      <point x="536.0" y="700.0"/>
      <point x="402" y="700" type="curve" smooth="yes"/>
      <point x="137" y="700" type="line"/>
      <point x="137" y="614" type="line"/>
      <point x="399" y="614" type="line" smooth="yes"/>
      <point x="476.0" y="614.0"/>
      <point x="525" y="573"/>
      <point x="525" y="495" type="curve" smooth="yes"/>
      <point x="525" y="418"/>
      <point x="476.0" y="376.0"/>
    </contour>
    <contour>
      <point x="316" y="324" type="line"/>
      <point x="373" y="230"/>
      <point x="477" y="79"/>
      <point x="547" y="0" type="curve"/>
      <point x="653" y="0" type="line"/>
      <point x="653" y="7" type="line"/>
      <point x="585" y="82"/>
      <point x="479" y="231"/>
      <point x="421" y="324" type="curve"/>
    </contour>
  </outline>
</glyph>
<glyph name="f_i" format="2">
  <advance width="519"/>
  <outline>
    <contour>
      <point x="271" y="684" type="curve" smooth="yes"/>
      <point x="174" y="684"/>
      <point x="94" y="619"/>
      <point x="94" y="518" type="curve" smooth="yes"/>
      <point x="94" y="0" type="line"/>
      <point x="176" y="0" type="line"/>
      <point x="176" y="518" type="line" smooth="yes"/>
      <point x="176" y="588"/>
      <point x="219" y="624"/>
      <point x="271" y="624" type="curve" smooth="yes"/>
      <point x="313" y="624"/>
      <point x="337" y="604"/>
      <point x="346" y="577" type="curve"/>
      <point x="431" y="577" type="line"/>
      <point x="422" y="625"/>
      <point x="366" y="684"/>
    </contour>
    <contour>
      <point x="19" y="436" type="line"/>
      <point x="286" y="436" type="line"/>
      <point x="286" y="500" type="line"/>
      <point x="19" y="500" type="line"/>
    </contour>
    <contour>
      <point x="362" y="500" type="line"/>
      <point x="362" y="0" type="line"/>
      <point x="444" y="0" type="line"/>
      <point x="444" y="500" type="line"/>
    </contour>
  </outline>
</glyph>
<glyph name="f_l" format="2">
  <advance width="519"/>
  <outline>
    <contour>
      <point x="19" y="436" type="line"/>
      <point x="286" y="436" type="line"/>
      <point x="286" y="500" type="line"/>
      <point x="19" y="500" type="line"/>
    </contour>
    <contour>
      <point x="249" y="684" type="curve" smooth="yes"/>
      <point x="155" y="684"/>
      <point x="94" y="619"/>
      <point x="94" y="518" type="curve" smooth="yes"/>
      <point x="94" y="0" type="line"/>
      <point x="176" y="0" type="line"/>
      <point x="176" y="518" type="line" smooth="yes"/>
      <point x="176" y="588"/>
      <point x="210" y="618"/>
      <point x="258" y="618" type="curve" smooth="yes"/>
      <point x="277" y="618"/>
      <point x="295" y="613"/>
      <point x="305" y="610" type="curve"/>
      <point x="305" y="674" type="line"/>
      <point x="294" y="678"/>
      <point x="275" y="684"/>
    </contour>
    <contour>
      <point x="362" y="673" type="line"/>
      <point x="362" y="0" type="line"/>
      <point x="444" y="0" type="line"/>
      <point x="444" y="673" type="line"/>
    </contour>
  </outline>
</glyph>
<glyph name="r.alt1" format="2">
  <advance width="440"/>
  <outline>
    <contour>
      <point x="70" y="500" type="line"/>
      <point x="70" y="0" type="line"/>
      <point x="160" y="0" type="line"/>
      <point x="160" y="303" type="line" smooth="yes"/>
      <point x="160.0" y="367.0"/>
      <point x="205" y="436"/>
      <point x="267" y="436" type="curve" smooth="yes"/>
      <point x="310" y="436"/>
      <point x="338" y="402"/>
      <point x="340" y="348" type="curve"/>
      <point x="423" y="348" type="line"/>
      <point x="421" y="447"/>
      <point x="372" y="511"/>
      <point x="303" y="511" type="curve" smooth="yes"/>
      <point x="235" y="511"/>
      <point x="169" y="453"/>
      <point x="144" y="387" type="curve"/>
      <point x="160" y="387" type="line"/>
      <point x="160" y="500" type="line"/>
    </contour>
  </outline>
</glyph>
